<?xml version="1.0" standalone="no"?><!DOCTYPE svg PUBLIC "-//W3C//DTD SVG 1.1//EN" "http://www.w3.org/Graphics/SVG/1.1/DTD/svg11.dtd"><svg t="1564311886093" class="icon" viewBox="0 0 1024 1024" version="1.1" xmlns="http://www.w3.org/2000/svg" p-id="1810" xmlns:xlink="http://www.w3.org/1999/xlink" width="200" height="200"><defs><style type="text/css"></style></defs><path d="M899.072 108.544h-774.144C85.6064 108.544 53.248 140.9024 53.248 180.224v528.384c0 39.3216 32.3584 71.68 71.68 71.68H335.872v73.728H247.808c-16.7936 0-30.72 13.9264-30.72 30.72s13.9264 30.72 30.72 30.72h528.384c16.7936 0 30.72-13.9264 30.72-30.72s-13.9264-30.72-30.72-30.72H688.128v-73.728h210.944c39.3216 0 71.68-32.3584 71.68-71.68V180.224c0-39.3216-32.3584-71.68-71.68-71.68z m-774.144 61.44h774.144c5.7344 0 10.24 4.5056 10.24 10.24v354.304H114.688V180.224c0-5.7344 4.5056-10.24 10.24-10.24z m501.76 684.032H397.312v-73.728h229.376v73.728z m282.624-145.408c0 5.7344-4.5056 10.24-10.24 10.24h-774.144c-5.7344 0-10.24-4.5056-10.24-10.24v-112.64h794.624V708.608z" fill="#ffffff" p-id="1811"></path></svg>